<mxfile host="65bd71144e">
    <diagram id="WmtT6XmXZEdIb6NEFMJ5" name="Page-1">
        <mxGraphModel dx="1374" dy="782" grid="1" gridSize="10" guides="1" tooltips="1" connect="1" arrows="1" fold="1" page="1" pageScale="1" pageWidth="1654" pageHeight="1169" math="0" shadow="0">
            <root>
                <mxCell id="0"/>
                <mxCell id="1" parent="0"/>
                <mxCell id="8" style="edgeStyle=none;html=1;entryX=0.5;entryY=0;entryDx=0;entryDy=0;startArrow=none;startFill=0;endArrow=none;endFill=0;targetPerimeterSpacing=0;strokeWidth=1;" edge="1" parent="1" source="G7EogQ3TygG4Y2U64nS0-4" target="G7EogQ3TygG4Y2U64nS0-14">
                    <mxGeometry relative="1" as="geometry"/>
                </mxCell>
                <mxCell id="G7EogQ3TygG4Y2U64nS0-4" value="Kurzus" style="rounded=1;whiteSpace=wrap;html=1;" parent="1" vertex="1">
                    <mxGeometry x="450" y="100" width="120" height="40" as="geometry"/>
                </mxCell>
                <mxCell id="G7EogQ3TygG4Y2U64nS0-5" value="" style="endArrow=none;html=1;rounded=0;exitX=0.75;exitY=0;exitDx=0;exitDy=0;entryX=0.5;entryY=1;entryDx=0;entryDy=0;" parent="1" source="G7EogQ3TygG4Y2U64nS0-4" target="G7EogQ3TygG4Y2U64nS0-10" edge="1">
                    <mxGeometry width="50" height="50" relative="1" as="geometry">
                        <mxPoint x="560" y="50" as="sourcePoint"/>
                        <mxPoint x="580" y="50" as="targetPoint"/>
                    </mxGeometry>
                </mxCell>
                <mxCell id="G7EogQ3TygG4Y2U64nS0-6" value="" style="endArrow=none;html=1;rounded=0;entryX=0.5;entryY=0;entryDx=0;entryDy=0;exitX=0.5;exitY=1;exitDx=0;exitDy=0;" parent="1" source="G7EogQ3TygG4Y2U64nS0-9" target="G7EogQ3TygG4Y2U64nS0-4" edge="1">
                    <mxGeometry width="50" height="50" relative="1" as="geometry">
                        <mxPoint x="470" y="50" as="sourcePoint"/>
                        <mxPoint x="570" y="130" as="targetPoint"/>
                    </mxGeometry>
                </mxCell>
                <mxCell id="G7EogQ3TygG4Y2U64nS0-7" value="" style="endArrow=none;html=1;rounded=0;entryX=0.023;entryY=0.074;entryDx=0;entryDy=0;entryPerimeter=0;exitX=1;exitY=1;exitDx=0;exitDy=0;" parent="1" source="G7EogQ3TygG4Y2U64nS0-8" target="G7EogQ3TygG4Y2U64nS0-4" edge="1">
                    <mxGeometry width="50" height="50" relative="1" as="geometry">
                        <mxPoint x="390" y="50" as="sourcePoint"/>
                        <mxPoint x="440" y="100" as="targetPoint"/>
                    </mxGeometry>
                </mxCell>
                <mxCell id="G7EogQ3TygG4Y2U64nS0-8" value="max_letszam" style="ellipse;whiteSpace=wrap;html=1;" parent="1" vertex="1">
                    <mxGeometry x="350" y="30" width="80" height="40" as="geometry"/>
                </mxCell>
                <mxCell id="G7EogQ3TygG4Y2U64nS0-9" value="nev" style="ellipse;whiteSpace=wrap;html=1;" parent="1" vertex="1">
                    <mxGeometry x="460" y="30" width="60" height="30" as="geometry"/>
                </mxCell>
                <mxCell id="G7EogQ3TygG4Y2U64nS0-12" value="" style="group;fontStyle=4" parent="1" vertex="1" connectable="0">
                    <mxGeometry x="540" y="30" width="60" height="30" as="geometry"/>
                </mxCell>
                <mxCell id="G7EogQ3TygG4Y2U64nS0-10" value="kod" style="ellipse;whiteSpace=wrap;html=1;fontStyle=4" parent="G7EogQ3TygG4Y2U64nS0-12" vertex="1">
                    <mxGeometry width="60" height="30" as="geometry"/>
                </mxCell>
                <mxCell id="G7EogQ3TygG4Y2U64nS0-13" value="Feliratkozas" style="rhombus;whiteSpace=wrap;html=1;" parent="1" vertex="1">
                    <mxGeometry x="192.5" y="220" width="80" height="80" as="geometry"/>
                </mxCell>
                <mxCell id="G7EogQ3TygG4Y2U64nS0-14" value="Oktatja" style="rhombus;whiteSpace=wrap;html=1;" parent="1" vertex="1">
                    <mxGeometry x="330" y="220" width="80" height="80" as="geometry"/>
                </mxCell>
                <mxCell id="G7EogQ3TygG4Y2U64nS0-18" value="" style="endArrow=none;html=1;rounded=0;entryX=0;entryY=0.75;entryDx=0;entryDy=0;" parent="1" target="G7EogQ3TygG4Y2U64nS0-4" edge="1">
                    <mxGeometry width="50" height="50" relative="1" as="geometry">
                        <mxPoint x="390" y="140" as="sourcePoint"/>
                        <mxPoint x="500" y="150" as="targetPoint"/>
                    </mxGeometry>
                </mxCell>
                <mxCell id="G7EogQ3TygG4Y2U64nS0-19" value="" style="endArrow=none;html=1;rounded=0;exitX=0.5;exitY=0;exitDx=0;exitDy=0;" parent="1" source="G7EogQ3TygG4Y2U64nS0-13" edge="1">
                    <mxGeometry width="50" height="50" relative="1" as="geometry">
                        <mxPoint x="450" y="200" as="sourcePoint"/>
                        <mxPoint x="390" y="140" as="targetPoint"/>
                    </mxGeometry>
                </mxCell>
                <mxCell id="G7EogQ3TygG4Y2U64nS0-21" value="Oktat칩" style="rounded=1;whiteSpace=wrap;html=1;" parent="1" vertex="1">
                    <mxGeometry x="317.5" y="355" width="105" height="50" as="geometry"/>
                </mxCell>
                <mxCell id="G7EogQ3TygG4Y2U64nS0-22" value="" style="endArrow=classic;html=1;rounded=0;exitX=0.5;exitY=1;exitDx=0;exitDy=0;entryX=0.5;entryY=0;entryDx=0;entryDy=0;" parent="1" source="G7EogQ3TygG4Y2U64nS0-14" target="G7EogQ3TygG4Y2U64nS0-21" edge="1">
                    <mxGeometry width="50" height="50" relative="1" as="geometry">
                        <mxPoint x="310" y="260" as="sourcePoint"/>
                        <mxPoint x="360" y="210" as="targetPoint"/>
                    </mxGeometry>
                </mxCell>
                <mxCell id="G7EogQ3TygG4Y2U64nS0-23" value="tanitas_kezdete" style="ellipse;whiteSpace=wrap;html=1;" parent="1" vertex="1">
                    <mxGeometry x="400" y="450" width="100" height="50" as="geometry"/>
                </mxCell>
                <mxCell id="G7EogQ3TygG4Y2U64nS0-24" value="" style="endArrow=none;html=1;rounded=0;entryX=0.75;entryY=1;entryDx=0;entryDy=0;exitX=0;exitY=0.5;exitDx=0;exitDy=0;" parent="1" source="G7EogQ3TygG4Y2U64nS0-23" target="G7EogQ3TygG4Y2U64nS0-21" edge="1">
                    <mxGeometry width="50" height="50" relative="1" as="geometry">
                        <mxPoint x="310" y="350" as="sourcePoint"/>
                        <mxPoint x="360" y="300" as="targetPoint"/>
                    </mxGeometry>
                </mxCell>
                <mxCell id="G7EogQ3TygG4Y2U64nS0-25" value="Hallgat칩" style="rounded=1;whiteSpace=wrap;html=1;" parent="1" vertex="1">
                    <mxGeometry x="182.5" y="360" width="100" height="40" as="geometry"/>
                </mxCell>
                <mxCell id="G7EogQ3TygG4Y2U64nS0-28" value="" style="endArrow=none;html=1;rounded=0;entryX=0.5;entryY=1;entryDx=0;entryDy=0;exitX=0.5;exitY=0;exitDx=0;exitDy=0;" parent="1" source="G7EogQ3TygG4Y2U64nS0-25" target="G7EogQ3TygG4Y2U64nS0-13" edge="1">
                    <mxGeometry width="50" height="50" relative="1" as="geometry">
                        <mxPoint x="310" y="350" as="sourcePoint"/>
                        <mxPoint x="360" y="300" as="targetPoint"/>
                    </mxGeometry>
                </mxCell>
                <mxCell id="G7EogQ3TygG4Y2U64nS0-29" value="szemeszter" style="ellipse;whiteSpace=wrap;html=1;" parent="1" vertex="1">
                    <mxGeometry x="20" y="370" width="90" height="45" as="geometry"/>
                </mxCell>
                <mxCell id="G7EogQ3TygG4Y2U64nS0-30" value="" style="endArrow=none;html=1;rounded=0;entryX=0;entryY=0.75;entryDx=0;entryDy=0;exitX=1;exitY=0.5;exitDx=0;exitDy=0;" parent="1" source="G7EogQ3TygG4Y2U64nS0-29" target="G7EogQ3TygG4Y2U64nS0-25" edge="1">
                    <mxGeometry width="50" height="50" relative="1" as="geometry">
                        <mxPoint x="310" y="350" as="sourcePoint"/>
                        <mxPoint x="360" y="300" as="targetPoint"/>
                    </mxGeometry>
                </mxCell>
                <mxCell id="G7EogQ3TygG4Y2U64nS0-31" value="" style="triangle;whiteSpace=wrap;html=1;rotation=90;" parent="1" vertex="1">
                    <mxGeometry x="276.25" y="450" width="52.5" height="60" as="geometry"/>
                </mxCell>
                <mxCell id="G7EogQ3TygG4Y2U64nS0-32" value="" style="endArrow=none;html=1;rounded=0;entryX=0;entryY=1;entryDx=0;entryDy=0;exitX=0;exitY=0.25;exitDx=0;exitDy=0;" parent="1" source="G7EogQ3TygG4Y2U64nS0-31" target="G7EogQ3TygG4Y2U64nS0-21" edge="1">
                    <mxGeometry width="50" height="50" relative="1" as="geometry">
                        <mxPoint x="330" y="450" as="sourcePoint"/>
                        <mxPoint x="370" y="450" as="targetPoint"/>
                    </mxGeometry>
                </mxCell>
                <mxCell id="G7EogQ3TygG4Y2U64nS0-33" value="" style="endArrow=none;html=1;rounded=0;entryX=1;entryY=1;entryDx=0;entryDy=0;exitX=0;exitY=0.75;exitDx=0;exitDy=0;" parent="1" source="G7EogQ3TygG4Y2U64nS0-31" target="G7EogQ3TygG4Y2U64nS0-25" edge="1">
                    <mxGeometry width="50" height="50" relative="1" as="geometry">
                        <mxPoint x="280" y="450" as="sourcePoint"/>
                        <mxPoint x="370" y="450" as="targetPoint"/>
                    </mxGeometry>
                </mxCell>
                <mxCell id="G7EogQ3TygG4Y2U64nS0-34" value="Felhaszn치l칩" style="rounded=1;whiteSpace=wrap;html=1;" parent="1" vertex="1">
                    <mxGeometry x="252.5" y="570" width="100" height="40" as="geometry"/>
                </mxCell>
                <mxCell id="G7EogQ3TygG4Y2U64nS0-35" value="" style="endArrow=none;html=1;rounded=0;entryX=1;entryY=0.5;entryDx=0;entryDy=0;exitX=0.5;exitY=0;exitDx=0;exitDy=0;" parent="1" source="G7EogQ3TygG4Y2U64nS0-34" target="G7EogQ3TygG4Y2U64nS0-31" edge="1">
                    <mxGeometry width="50" height="50" relative="1" as="geometry">
                        <mxPoint x="270" y="570" as="sourcePoint"/>
                        <mxPoint x="320" y="520" as="targetPoint"/>
                    </mxGeometry>
                </mxCell>
                <mxCell id="G7EogQ3TygG4Y2U64nS0-36" value="nev" style="ellipse;whiteSpace=wrap;html=1;" parent="1" vertex="1">
                    <mxGeometry x="100" y="580" width="60" height="40" as="geometry"/>
                </mxCell>
                <mxCell id="G7EogQ3TygG4Y2U64nS0-40" value="" style="endArrow=none;html=1;rounded=0;entryX=0.25;entryY=1;entryDx=0;entryDy=0;exitX=0.5;exitY=0;exitDx=0;exitDy=0;" parent="1" source="G7EogQ3TygG4Y2U64nS0-37" target="G7EogQ3TygG4Y2U64nS0-34" edge="1">
                    <mxGeometry width="50" height="50" relative="1" as="geometry">
                        <mxPoint x="300" y="660" as="sourcePoint"/>
                        <mxPoint x="350" y="610" as="targetPoint"/>
                    </mxGeometry>
                </mxCell>
                <mxCell id="G7EogQ3TygG4Y2U64nS0-41" value="" style="endArrow=none;html=1;rounded=0;entryX=0;entryY=0.25;entryDx=0;entryDy=0;exitX=0.687;exitY=0.025;exitDx=0;exitDy=0;exitPerimeter=0;" parent="1" source="G7EogQ3TygG4Y2U64nS0-36" target="G7EogQ3TygG4Y2U64nS0-34" edge="1">
                    <mxGeometry width="50" height="50" relative="1" as="geometry">
                        <mxPoint x="300" y="660" as="sourcePoint"/>
                        <mxPoint x="350" y="610" as="targetPoint"/>
                    </mxGeometry>
                </mxCell>
                <mxCell id="G7EogQ3TygG4Y2U64nS0-42" value="keresztnev" style="ellipse;whiteSpace=wrap;html=1;" parent="1" vertex="1">
                    <mxGeometry x="10" y="640" width="80" height="40" as="geometry"/>
                </mxCell>
                <mxCell id="G7EogQ3TygG4Y2U64nS0-43" value="vezeteknev" style="ellipse;whiteSpace=wrap;html=1;" parent="1" vertex="1">
                    <mxGeometry x="120" y="640" width="90" height="40" as="geometry"/>
                </mxCell>
                <mxCell id="G7EogQ3TygG4Y2U64nS0-44" value="" style="endArrow=none;html=1;rounded=0;entryX=1;entryY=1;entryDx=0;entryDy=0;exitX=0.5;exitY=0;exitDx=0;exitDy=0;" parent="1" source="G7EogQ3TygG4Y2U64nS0-43" target="G7EogQ3TygG4Y2U64nS0-36" edge="1">
                    <mxGeometry width="50" height="50" relative="1" as="geometry">
                        <mxPoint x="290" y="680" as="sourcePoint"/>
                        <mxPoint x="340" y="630" as="targetPoint"/>
                    </mxGeometry>
                </mxCell>
                <mxCell id="G7EogQ3TygG4Y2U64nS0-45" value="" style="endArrow=none;html=1;rounded=0;entryX=0;entryY=1;entryDx=0;entryDy=0;exitX=1;exitY=0;exitDx=0;exitDy=0;" parent="1" source="G7EogQ3TygG4Y2U64nS0-42" target="G7EogQ3TygG4Y2U64nS0-36" edge="1">
                    <mxGeometry width="50" height="50" relative="1" as="geometry">
                        <mxPoint x="290" y="680" as="sourcePoint"/>
                        <mxPoint x="340" y="630" as="targetPoint"/>
                    </mxGeometry>
                </mxCell>
                <mxCell id="G7EogQ3TygG4Y2U64nS0-46" value="Helysz칤ne" style="rhombus;whiteSpace=wrap;html=1;" parent="1" vertex="1">
                    <mxGeometry x="860" y="220" width="80" height="80" as="geometry"/>
                </mxCell>
                <mxCell id="G7EogQ3TygG4Y2U64nS0-47" value="" style="endArrow=none;html=1;rounded=0;entryX=0.975;entryY=0.95;entryDx=0;entryDy=0;entryPerimeter=0;" parent="1" target="G7EogQ3TygG4Y2U64nS0-4" edge="1">
                    <mxGeometry width="50" height="50" relative="1" as="geometry">
                        <mxPoint x="820" y="140" as="sourcePoint"/>
                        <mxPoint x="680" y="360" as="targetPoint"/>
                    </mxGeometry>
                </mxCell>
                <mxCell id="G7EogQ3TygG4Y2U64nS0-48" value="" style="endArrow=none;html=1;rounded=0;entryX=0.5;entryY=0;entryDx=0;entryDy=0;" parent="1" target="G7EogQ3TygG4Y2U64nS0-46" edge="1">
                    <mxGeometry width="50" height="50" relative="1" as="geometry">
                        <mxPoint x="820" y="140" as="sourcePoint"/>
                        <mxPoint x="680" y="360" as="targetPoint"/>
                    </mxGeometry>
                </mxCell>
                <mxCell id="G7EogQ3TygG4Y2U64nS0-49" value="Terem" style="shape=ext;margin=3;double=1;whiteSpace=wrap;html=1;align=center;" parent="1" vertex="1">
                    <mxGeometry x="850" y="390" width="100" height="40" as="geometry"/>
                </mxCell>
                <mxCell id="G7EogQ3TygG4Y2U64nS0-51" value="kod" style="ellipse;whiteSpace=wrap;html=1;" parent="1" vertex="1">
                    <mxGeometry x="1010" y="390" width="80" height="40" as="geometry"/>
                </mxCell>
                <mxCell id="G7EogQ3TygG4Y2U64nS0-52" value="" style="endArrow=none;dashed=1;html=1;rounded=0;" parent="1" edge="1">
                    <mxGeometry width="50" height="50" relative="1" as="geometry">
                        <mxPoint x="1030" y="415" as="sourcePoint"/>
                        <mxPoint x="1070" y="415" as="targetPoint"/>
                    </mxGeometry>
                </mxCell>
                <mxCell id="G7EogQ3TygG4Y2U64nS0-53" value="" style="endArrow=none;html=1;rounded=0;entryX=1;entryY=0.5;entryDx=0;entryDy=0;exitX=0;exitY=0.5;exitDx=0;exitDy=0;" parent="1" source="G7EogQ3TygG4Y2U64nS0-51" target="G7EogQ3TygG4Y2U64nS0-49" edge="1">
                    <mxGeometry width="50" height="50" relative="1" as="geometry">
                        <mxPoint x="980" y="410" as="sourcePoint"/>
                        <mxPoint x="900" y="430" as="targetPoint"/>
                    </mxGeometry>
                </mxCell>
                <mxCell id="G7EogQ3TygG4Y2U64nS0-56" value="" style="group" parent="1" vertex="1" connectable="0">
                    <mxGeometry x="855" y="490" width="90" height="90" as="geometry"/>
                </mxCell>
                <mxCell id="G7EogQ3TygG4Y2U64nS0-54" value="칄p칲lete" style="rhombus;whiteSpace=wrap;html=1;" parent="G7EogQ3TygG4Y2U64nS0-56" vertex="1">
                    <mxGeometry x="5" y="5" width="80" height="80" as="geometry"/>
                </mxCell>
                <mxCell id="G7EogQ3TygG4Y2U64nS0-55" value="" style="rhombus;whiteSpace=wrap;html=1;fillColor=none;" parent="G7EogQ3TygG4Y2U64nS0-56" vertex="1">
                    <mxGeometry width="90" height="90" as="geometry"/>
                </mxCell>
                <mxCell id="G7EogQ3TygG4Y2U64nS0-57" value="" style="endArrow=none;html=1;rounded=0;entryX=0.5;entryY=1;entryDx=0;entryDy=0;exitX=0.5;exitY=0;exitDx=0;exitDy=0;" parent="1" source="G7EogQ3TygG4Y2U64nS0-55" target="G7EogQ3TygG4Y2U64nS0-49" edge="1">
                    <mxGeometry width="50" height="50" relative="1" as="geometry">
                        <mxPoint x="680" y="460" as="sourcePoint"/>
                        <mxPoint x="730" y="410" as="targetPoint"/>
                    </mxGeometry>
                </mxCell>
                <mxCell id="G7EogQ3TygG4Y2U64nS0-60" value="칄p칲let" style="rounded=1;arcSize=10;whiteSpace=wrap;html=1;align=center;fillColor=default;" parent="1" vertex="1">
                    <mxGeometry x="850" y="630" width="100" height="40" as="geometry"/>
                </mxCell>
                <mxCell id="G7EogQ3TygG4Y2U64nS0-61" value="" style="endArrow=classic;html=1;rounded=0;entryX=0.5;entryY=0;entryDx=0;entryDy=0;exitX=0.5;exitY=1;exitDx=0;exitDy=0;" parent="1" source="G7EogQ3TygG4Y2U64nS0-55" target="G7EogQ3TygG4Y2U64nS0-60" edge="1">
                    <mxGeometry width="50" height="50" relative="1" as="geometry">
                        <mxPoint x="680" y="460" as="sourcePoint"/>
                        <mxPoint x="730" y="410" as="targetPoint"/>
                    </mxGeometry>
                </mxCell>
                <mxCell id="G7EogQ3TygG4Y2U64nS0-62" value="kod" style="ellipse;whiteSpace=wrap;html=1;align=center;fillColor=default;fontStyle=4" parent="1" vertex="1">
                    <mxGeometry x="800" y="700" width="100" height="40" as="geometry"/>
                </mxCell>
                <mxCell id="G7EogQ3TygG4Y2U64nS0-37" value="kod" style="ellipse;whiteSpace=wrap;html=1;fontStyle=4" parent="1" vertex="1">
                    <mxGeometry x="220" y="640" width="70" height="40" as="geometry"/>
                </mxCell>
                <mxCell id="G7EogQ3TygG4Y2U64nS0-63" value="nev" style="ellipse;whiteSpace=wrap;html=1;align=center;fillColor=default;" parent="1" vertex="1">
                    <mxGeometry x="930" y="700" width="85" height="40" as="geometry"/>
                </mxCell>
                <mxCell id="G7EogQ3TygG4Y2U64nS0-65" value="" style="endArrow=none;html=1;rounded=0;entryX=0.25;entryY=1;entryDx=0;entryDy=0;exitX=0.5;exitY=0;exitDx=0;exitDy=0;" parent="1" source="G7EogQ3TygG4Y2U64nS0-62" target="G7EogQ3TygG4Y2U64nS0-60" edge="1">
                    <mxGeometry width="50" height="50" relative="1" as="geometry">
                        <mxPoint x="770" y="700" as="sourcePoint"/>
                        <mxPoint x="760" y="610" as="targetPoint"/>
                    </mxGeometry>
                </mxCell>
                <mxCell id="G7EogQ3TygG4Y2U64nS0-66" value="" style="endArrow=none;html=1;rounded=0;entryX=0.75;entryY=1;entryDx=0;entryDy=0;exitX=0.5;exitY=0;exitDx=0;exitDy=0;" parent="1" source="G7EogQ3TygG4Y2U64nS0-63" target="G7EogQ3TygG4Y2U64nS0-60" edge="1">
                    <mxGeometry width="50" height="50" relative="1" as="geometry">
                        <mxPoint x="952.6263074867506" y="705.7744321365478" as="sourcePoint"/>
                        <mxPoint x="770" y="410" as="targetPoint"/>
                    </mxGeometry>
                </mxCell>
                <mxCell id="G7EogQ3TygG4Y2U64nS0-80" value="Tananyag" style="rounded=1;arcSize=10;whiteSpace=wrap;html=1;align=center;fillColor=default;" parent="1" vertex="1">
                    <mxGeometry x="1040" y="200" width="100" height="40" as="geometry"/>
                </mxCell>
                <mxCell id="G7EogQ3TygG4Y2U64nS0-84" value="Log&amp;nbsp;" style="rounded=1;arcSize=10;whiteSpace=wrap;html=1;align=center;fillColor=default;" parent="1" vertex="1">
                    <mxGeometry x="246.25" y="810" width="112.5" height="40" as="geometry"/>
                </mxCell>
                <mxCell id="G7EogQ3TygG4Y2U64nS0-85" value="&lt;u&gt;kod&lt;/u&gt;" style="ellipse;whiteSpace=wrap;html=1;align=center;fillColor=default;" parent="1" vertex="1">
                    <mxGeometry x="182.5" y="890" width="100" height="40" as="geometry"/>
                </mxCell>
                <mxCell id="G7EogQ3TygG4Y2U64nS0-86" value="bejelentkezesi_ido" style="ellipse;whiteSpace=wrap;html=1;align=center;fillColor=default;" parent="1" vertex="1">
                    <mxGeometry x="310" y="890" width="120" height="40" as="geometry"/>
                </mxCell>
                <mxCell id="G7EogQ3TygG4Y2U64nS0-87" value="" style="endArrow=none;html=1;rounded=0;entryX=0.25;entryY=1;entryDx=0;entryDy=0;exitX=0.5;exitY=0;exitDx=0;exitDy=0;" parent="1" source="G7EogQ3TygG4Y2U64nS0-85" target="G7EogQ3TygG4Y2U64nS0-84" edge="1">
                    <mxGeometry width="50" height="50" relative="1" as="geometry">
                        <mxPoint x="1120" y="680" as="sourcePoint"/>
                        <mxPoint x="1170" y="630" as="targetPoint"/>
                    </mxGeometry>
                </mxCell>
                <mxCell id="G7EogQ3TygG4Y2U64nS0-88" value="" style="endArrow=none;html=1;rounded=0;entryX=0.75;entryY=1;entryDx=0;entryDy=0;exitX=0.5;exitY=0;exitDx=0;exitDy=0;" parent="1" source="G7EogQ3TygG4Y2U64nS0-86" target="G7EogQ3TygG4Y2U64nS0-84" edge="1">
                    <mxGeometry width="50" height="50" relative="1" as="geometry">
                        <mxPoint x="1120" y="680" as="sourcePoint"/>
                        <mxPoint x="1170" y="630" as="targetPoint"/>
                    </mxGeometry>
                </mxCell>
                <mxCell id="qGhrdci2sBfRiqo-6e7J-1" value="admin" style="ellipse;whiteSpace=wrap;html=1;align=center;" parent="1" vertex="1">
                    <mxGeometry x="310" y="640" width="100" height="40" as="geometry"/>
                </mxCell>
                <mxCell id="qGhrdci2sBfRiqo-6e7J-3" value="" style="endArrow=none;html=1;rounded=0;entryX=0.75;entryY=1;entryDx=0;entryDy=0;" parent="1" source="qGhrdci2sBfRiqo-6e7J-1" target="G7EogQ3TygG4Y2U64nS0-34" edge="1">
                    <mxGeometry width="50" height="50" relative="1" as="geometry">
                        <mxPoint x="800" y="620" as="sourcePoint"/>
                        <mxPoint x="850" y="570" as="targetPoint"/>
                    </mxGeometry>
                </mxCell>
                <mxCell id="qGhrdci2sBfRiqo-6e7J-6" value="Bejegyz칠s" style="rounded=1;arcSize=10;whiteSpace=wrap;html=1;align=center;" parent="1" vertex="1">
                    <mxGeometry x="520" y="570" width="100" height="40" as="geometry"/>
                </mxCell>
                <mxCell id="qGhrdci2sBfRiqo-6e7J-8" value="" style="endArrow=classic;html=1;rounded=0;exitX=0;exitY=0.5;exitDx=0;exitDy=0;entryX=1;entryY=0.5;entryDx=0;entryDy=0;" parent="1" source="qGhrdci2sBfRiqo-6e7J-6" target="G7EogQ3TygG4Y2U64nS0-34" edge="1">
                    <mxGeometry width="50" height="50" relative="1" as="geometry">
                        <mxPoint x="800" y="520" as="sourcePoint"/>
                        <mxPoint x="360" y="590" as="targetPoint"/>
                    </mxGeometry>
                </mxCell>
                <mxCell id="qGhrdci2sBfRiqo-6e7J-9" value="bejegyzes_ID" style="ellipse;whiteSpace=wrap;html=1;align=center;fontStyle=4;" parent="1" vertex="1">
                    <mxGeometry x="460" y="640" width="100" height="40" as="geometry"/>
                </mxCell>
                <mxCell id="qGhrdci2sBfRiqo-6e7J-10" value="" style="endArrow=none;html=1;rounded=0;entryX=0.25;entryY=1;entryDx=0;entryDy=0;exitX=0.5;exitY=0;exitDx=0;exitDy=0;" parent="1" source="qGhrdci2sBfRiqo-6e7J-9" target="qGhrdci2sBfRiqo-6e7J-6" edge="1">
                    <mxGeometry width="50" height="50" relative="1" as="geometry">
                        <mxPoint x="800" y="520" as="sourcePoint"/>
                        <mxPoint x="850" y="470" as="targetPoint"/>
                    </mxGeometry>
                </mxCell>
                <mxCell id="qGhrdci2sBfRiqo-6e7J-11" value="tartalom" style="ellipse;whiteSpace=wrap;html=1;align=center;" parent="1" vertex="1">
                    <mxGeometry x="580" y="640" width="100" height="40" as="geometry"/>
                </mxCell>
                <mxCell id="qGhrdci2sBfRiqo-6e7J-12" value="" style="endArrow=none;html=1;rounded=0;entryX=0.75;entryY=1;entryDx=0;entryDy=0;exitX=0.32;exitY=0.075;exitDx=0;exitDy=0;exitPerimeter=0;" parent="1" source="qGhrdci2sBfRiqo-6e7J-11" target="qGhrdci2sBfRiqo-6e7J-6" edge="1">
                    <mxGeometry width="50" height="50" relative="1" as="geometry">
                        <mxPoint x="800" y="420" as="sourcePoint"/>
                        <mxPoint x="850" y="370" as="targetPoint"/>
                    </mxGeometry>
                </mxCell>
                <mxCell id="12" style="edgeStyle=none;html=1;entryX=1;entryY=0.5;entryDx=0;entryDy=0;startArrow=none;startFill=0;endArrow=classic;endFill=1;targetPerimeterSpacing=0;strokeWidth=1;" edge="1" parent="1" source="qGhrdci2sBfRiqo-6e7J-15" target="G7EogQ3TygG4Y2U64nS0-21">
                    <mxGeometry relative="1" as="geometry"/>
                </mxCell>
                <mxCell id="qGhrdci2sBfRiqo-6e7J-15" value="Hirdetm칠ny" style="rounded=1;arcSize=10;whiteSpace=wrap;html=1;align=center;" parent="1" vertex="1">
                    <mxGeometry x="660" y="355" width="100" height="40" as="geometry"/>
                </mxCell>
                <mxCell id="qGhrdci2sBfRiqo-6e7J-16" value="" style="endArrow=none;html=1;rounded=0;exitX=0.5;exitY=0;exitDx=0;exitDy=0;" parent="1" source="qGhrdci2sBfRiqo-6e7J-15" edge="1">
                    <mxGeometry width="50" height="50" relative="1" as="geometry">
                        <mxPoint x="800" y="420" as="sourcePoint"/>
                        <mxPoint x="700" y="110" as="targetPoint"/>
                    </mxGeometry>
                </mxCell>
                <mxCell id="qGhrdci2sBfRiqo-6e7J-17" value="" style="endArrow=classic;html=1;rounded=0;exitX=0.25;exitY=0;exitDx=0;exitDy=0;entryX=0.75;entryY=1;entryDx=0;entryDy=0;" parent="1" source="qGhrdci2sBfRiqo-6e7J-6" target="G7EogQ3TygG4Y2U64nS0-4" edge="1">
                    <mxGeometry width="50" height="50" relative="1" as="geometry">
                        <mxPoint x="800" y="420" as="sourcePoint"/>
                        <mxPoint x="610" y="400" as="targetPoint"/>
                    </mxGeometry>
                </mxCell>
                <mxCell id="qGhrdci2sBfRiqo-6e7J-18" value="" style="endArrow=classic;html=1;rounded=0;entryX=1;entryY=0.25;entryDx=0;entryDy=0;" parent="1" target="G7EogQ3TygG4Y2U64nS0-4" edge="1">
                    <mxGeometry width="50" height="50" relative="1" as="geometry">
                        <mxPoint x="700" y="110" as="sourcePoint"/>
                        <mxPoint x="850" y="370" as="targetPoint"/>
                    </mxGeometry>
                </mxCell>
                <mxCell id="qGhrdci2sBfRiqo-6e7J-19" value="hirdetmeny_ID" style="ellipse;whiteSpace=wrap;html=1;align=center;fontStyle=4;" parent="1" vertex="1">
                    <mxGeometry x="600" y="425" width="100" height="40" as="geometry"/>
                </mxCell>
                <mxCell id="qGhrdci2sBfRiqo-6e7J-20" value="tartalom" style="ellipse;whiteSpace=wrap;html=1;align=center;" parent="1" vertex="1">
                    <mxGeometry x="720" y="425" width="100" height="40" as="geometry"/>
                </mxCell>
                <mxCell id="qGhrdci2sBfRiqo-6e7J-21" value="" style="endArrow=none;html=1;rounded=0;entryX=0.25;entryY=1;entryDx=0;entryDy=0;exitX=0.5;exitY=0;exitDx=0;exitDy=0;" parent="1" source="qGhrdci2sBfRiqo-6e7J-19" target="qGhrdci2sBfRiqo-6e7J-15" edge="1">
                    <mxGeometry width="50" height="50" relative="1" as="geometry">
                        <mxPoint x="110" y="515" as="sourcePoint"/>
                        <mxPoint x="160" y="465" as="targetPoint"/>
                    </mxGeometry>
                </mxCell>
                <mxCell id="qGhrdci2sBfRiqo-6e7J-22" value="" style="endArrow=none;html=1;rounded=0;entryX=0.75;entryY=1;entryDx=0;entryDy=0;exitX=0.5;exitY=0;exitDx=0;exitDy=0;" parent="1" source="qGhrdci2sBfRiqo-6e7J-20" target="qGhrdci2sBfRiqo-6e7J-15" edge="1">
                    <mxGeometry width="50" height="50" relative="1" as="geometry">
                        <mxPoint x="110" y="515" as="sourcePoint"/>
                        <mxPoint x="160" y="465" as="targetPoint"/>
                    </mxGeometry>
                </mxCell>
                <mxCell id="qGhrdci2sBfRiqo-6e7J-23" value="" style="endArrow=classic;html=1;rounded=0;entryX=1;entryY=0.5;entryDx=0;entryDy=0;" parent="1" target="G7EogQ3TygG4Y2U64nS0-4" edge="1">
                    <mxGeometry width="50" height="50" relative="1" as="geometry">
                        <mxPoint x="1090" y="120" as="sourcePoint"/>
                        <mxPoint x="850" y="370" as="targetPoint"/>
                    </mxGeometry>
                </mxCell>
                <mxCell id="qGhrdci2sBfRiqo-6e7J-24" value="" style="endArrow=none;html=1;rounded=0;exitX=0.5;exitY=0;exitDx=0;exitDy=0;" parent="1" source="G7EogQ3TygG4Y2U64nS0-80" edge="1">
                    <mxGeometry width="50" height="50" relative="1" as="geometry">
                        <mxPoint x="800" y="420" as="sourcePoint"/>
                        <mxPoint x="1090" y="120" as="targetPoint"/>
                    </mxGeometry>
                </mxCell>
                <mxCell id="qGhrdci2sBfRiqo-6e7J-25" value="nev" style="ellipse;whiteSpace=wrap;html=1;align=center;" parent="1" vertex="1">
                    <mxGeometry x="940" y="205" width="75" height="30" as="geometry"/>
                </mxCell>
                <mxCell id="qGhrdci2sBfRiqo-6e7J-26" value="feltoltes_datum" style="ellipse;whiteSpace=wrap;html=1;align=center;" parent="1" vertex="1">
                    <mxGeometry x="1015" y="270" width="100" height="40" as="geometry"/>
                </mxCell>
                <mxCell id="qGhrdci2sBfRiqo-6e7J-27" value="tananyag(BLOB)" style="ellipse;whiteSpace=wrap;html=1;align=center;" parent="1" vertex="1">
                    <mxGeometry x="1180" y="195" width="120" height="50" as="geometry"/>
                </mxCell>
                <mxCell id="qGhrdci2sBfRiqo-6e7J-28" value="" style="endArrow=none;html=1;rounded=0;entryX=0;entryY=0.5;entryDx=0;entryDy=0;exitX=1;exitY=0.5;exitDx=0;exitDy=0;" parent="1" source="qGhrdci2sBfRiqo-6e7J-25" target="G7EogQ3TygG4Y2U64nS0-80" edge="1">
                    <mxGeometry width="50" height="50" relative="1" as="geometry">
                        <mxPoint x="800" y="420" as="sourcePoint"/>
                        <mxPoint x="850" y="370" as="targetPoint"/>
                    </mxGeometry>
                </mxCell>
                <mxCell id="qGhrdci2sBfRiqo-6e7J-29" value="" style="endArrow=none;html=1;rounded=0;entryX=0.25;entryY=1;entryDx=0;entryDy=0;exitX=0.5;exitY=0;exitDx=0;exitDy=0;" parent="1" source="qGhrdci2sBfRiqo-6e7J-26" target="G7EogQ3TygG4Y2U64nS0-80" edge="1">
                    <mxGeometry width="50" height="50" relative="1" as="geometry">
                        <mxPoint x="800" y="420" as="sourcePoint"/>
                        <mxPoint x="850" y="370" as="targetPoint"/>
                    </mxGeometry>
                </mxCell>
                <mxCell id="qGhrdci2sBfRiqo-6e7J-30" value="" style="endArrow=none;html=1;rounded=0;entryX=0;entryY=0.5;entryDx=0;entryDy=0;exitX=1;exitY=0.5;exitDx=0;exitDy=0;" parent="1" source="G7EogQ3TygG4Y2U64nS0-80" target="qGhrdci2sBfRiqo-6e7J-27" edge="1">
                    <mxGeometry width="50" height="50" relative="1" as="geometry">
                        <mxPoint x="800" y="420" as="sourcePoint"/>
                        <mxPoint x="850" y="370" as="targetPoint"/>
                    </mxGeometry>
                </mxCell>
                <mxCell id="qGhrdci2sBfRiqo-6e7J-31" value="" style="endArrow=classic;html=1;rounded=0;exitX=0.5;exitY=0;exitDx=0;exitDy=0;entryX=0.5;entryY=1;entryDx=0;entryDy=0;" parent="1" source="G7EogQ3TygG4Y2U64nS0-84" target="G7EogQ3TygG4Y2U64nS0-34" edge="1">
                    <mxGeometry width="50" height="50" relative="1" as="geometry">
                        <mxPoint x="290" y="790" as="sourcePoint"/>
                        <mxPoint x="340" y="740" as="targetPoint"/>
                    </mxGeometry>
                </mxCell>
                <mxCell id="qGhrdci2sBfRiqo-6e7J-32" value="" style="endArrow=none;html=1;rounded=0;entryX=0.5;entryY=1;entryDx=0;entryDy=0;exitX=0.5;exitY=0;exitDx=0;exitDy=0;targetPerimeterSpacing=0;strokeWidth=1;endFill=0;startArrow=classic;startFill=1;" parent="1" source="G7EogQ3TygG4Y2U64nS0-49" target="G7EogQ3TygG4Y2U64nS0-46" edge="1">
                    <mxGeometry width="50" height="50" relative="1" as="geometry">
                        <mxPoint x="880" y="410" as="sourcePoint"/>
                        <mxPoint x="930" y="360" as="targetPoint"/>
                    </mxGeometry>
                </mxCell>
                <mxCell id="3" style="edgeStyle=none;html=1;entryX=0.5;entryY=1;entryDx=0;entryDy=0;startArrow=none;startFill=0;endArrow=none;endFill=0;targetPerimeterSpacing=0;strokeWidth=1;" edge="1" parent="1" source="2" target="qGhrdci2sBfRiqo-6e7J-6">
                    <mxGeometry relative="1" as="geometry"/>
                </mxCell>
                <mxCell id="2" value="megiras_ideje" style="ellipse;whiteSpace=wrap;html=1;align=center;" vertex="1" parent="1">
                    <mxGeometry x="520" y="690" width="100" height="40" as="geometry"/>
                </mxCell>
                <mxCell id="7" style="edgeStyle=none;html=1;entryX=0.75;entryY=1;entryDx=0;entryDy=0;startArrow=none;startFill=0;endArrow=none;endFill=0;targetPerimeterSpacing=0;strokeWidth=1;" edge="1" parent="1" source="6" target="G7EogQ3TygG4Y2U64nS0-80">
                    <mxGeometry relative="1" as="geometry"/>
                </mxCell>
                <mxCell id="6" value="&lt;u&gt;kod&lt;/u&gt;" style="ellipse;whiteSpace=wrap;html=1;align=center;" vertex="1" parent="1">
                    <mxGeometry x="1140" y="270" width="100" height="40" as="geometry"/>
                </mxCell>
                <mxCell id="11" style="edgeStyle=none;html=1;entryX=0.5;entryY=1;entryDx=0;entryDy=0;startArrow=none;startFill=0;endArrow=none;endFill=0;targetPerimeterSpacing=0;strokeWidth=1;" edge="1" parent="1" source="10" target="qGhrdci2sBfRiqo-6e7J-15">
                    <mxGeometry relative="1" as="geometry"/>
                </mxCell>
                <mxCell id="10" value="megiras_ideje" style="ellipse;whiteSpace=wrap;html=1;align=center;" vertex="1" parent="1">
                    <mxGeometry x="660" y="500" width="100" height="40" as="geometry"/>
                </mxCell>
            </root>
        </mxGraphModel>
    </diagram>
</mxfile>